<svg width="28" height="28" viewBox="0 0 28 28" fill="none" xmlns="http://www.w3.org/2000/svg">
    <path d="M21.4375 27.9986H6.5625C2.94394 27.9986 0 25.0547 0 21.4361V12.2338C0 10.1999 0.965508 8.24927 2.58267 7.0158L10.0202 1.34312C12.3635 -0.444125 15.6365 -0.444125 17.9798 1.34312L20.3438 3.14452V1.74862C20.4015 0.297437 22.474 0.298531 22.5312 1.74862V5.35313C22.5312 5.76892 22.2955 6.14873 21.9229 6.3333C21.5502 6.51781 21.1052 6.47505 20.7745 6.2231L16.6535 3.08278C15.091 1.89103 12.9089 1.89103 11.3467 3.08251L3.90923 8.75519C2.83117 9.57741 2.1875 10.8778 2.1875 12.2338V21.4361C2.1875 23.8485 4.15013 25.8111 6.5625 25.8111H21.4375C23.8499 25.8111 25.8125 23.8485 25.8125 21.4361V12.2338C25.8125 10.8612 25.1761 9.55636 24.1101 8.74327C23.6298 8.37691 23.5374 7.69059 23.9038 7.21032C24.2701 6.73 24.9565 6.63763 25.4367 7.00398C27.0418 8.22811 28 10.1832 28 12.2338V21.4361C28 25.0547 25.0561 27.9986 21.4375 27.9986ZM11.8125 12.6314C11.0574 12.6314 10.4453 13.2436 10.4453 13.9986C10.5176 15.8126 13.1081 15.8112 13.1797 13.9986C13.1797 13.2435 12.5676 12.6314 11.8125 12.6314ZM17.5547 13.9986C17.4824 15.8126 14.8919 15.8112 14.8203 13.9986C14.8926 12.1846 17.4831 12.186 17.5547 13.9986ZM13.1797 18.3736C13.1074 20.1876 10.5169 20.1862 10.4453 18.3736C10.5176 16.5596 13.1081 16.561 13.1797 18.3736ZM17.5547 18.3736C17.4824 20.1876 14.8919 20.1862 14.8203 18.3736C14.8926 16.5596 17.4831 16.561 17.5547 18.3736Z" fill="#2D3436" />
</svg>
