<svg width="20" height="26" viewBox="0 0 20 26" fill="none" xmlns="http://www.w3.org/2000/svg">
    <path d="M1.44458 10.3334C1.44458 5.48561 5.37453 1.55566 10.2224 1.55566C15.0702 1.55566 19.0001 5.48561 19.0001 10.3334V11.2302C19.0001 11.7616 18.9563 12.2921 18.8692 12.8164L18.1667 17.0431C18.0041 18.0212 18.1277 19.0255 18.5225 19.935L18.6104 20.1374L19.5277 19.7392L18.6104 20.1374C18.6892 20.319 18.7377 20.5123 18.7539 20.7097C18.8405 21.7636 18.0084 22.6668 16.951 22.6668H3.99359C2.80767 22.6668 1.86011 21.5841 2.01293 20.2816C2.05429 19.9291 2.12221 19.6156 2.1999 19.257C2.24879 19.0313 2.30155 18.7877 2.35401 18.5054C2.47527 17.8526 2.56952 17.0779 2.39259 16.2795L1.6536 12.9449C1.51467 12.318 1.44458 11.6778 1.44458 11.0357V10.3334Z" stroke="#2D3436" stroke-width="2" />
    <rect x="4.58545" y="24.3171" width="10.9268" height="1.56097" rx="0.780487" fill="#2D3436" fill-opacity="0.9" />
</svg>
