<svg width="26" height="28" viewBox="0 0 26 28" fill="none" xmlns="http://www.w3.org/2000/svg">
    <path d="M18.8789 28H12.5898C11.1387 27.9422 11.1397 25.8698 12.5898 25.8125H18.8789C21.2913 25.8125 23.2539 23.8499 23.2539 21.4375V6.5625C23.2539 5.17355 22.616 3.89763 21.5036 3.06195C21.0207 2.6991 20.9233 2.01348 21.2861 1.53054C21.6489 1.04759 22.3346 0.950141 22.8176 1.31305C24.4851 2.56577 25.4414 4.47913 25.4414 6.5625V21.4375C25.4414 25.0561 22.4975 28 18.8789 28ZM9.30859 26.9062V1.09375C9.30859 0.489672 8.81892 0 8.21484 0H7.12109C3.50253 0 0.558594 2.94394 0.558594 6.5625V21.4375C0.558594 25.0561 3.50253 28 7.12109 28H8.21484C8.81892 28 9.30859 27.5103 9.30859 26.9062ZM7.12109 25.8125C4.70872 25.8125 2.74609 23.8499 2.74609 21.4375V6.5625C2.74609 4.15013 4.70872 2.1875 7.12109 2.1875V25.8125ZM17.2837 12.6862C16.819 12.6862 16.3614 12.5128 16.0084 12.183L15.3242 11.5513L14.6401 12.183C13.4607 13.2949 11.4886 12.4377 11.4961 10.8174V1.09375C11.4961 0.489672 11.9858 0 12.5898 0H18.0586C18.6627 0 19.1523 0.489672 19.1523 1.09375V10.8174C19.1523 11.5632 18.71 12.2364 18.0255 12.5325C17.7864 12.6358 17.534 12.6862 17.2837 12.6862ZM15.3242 8.96875C15.5905 8.96875 15.8567 9.06549 16.0662 9.25898L16.9648 10.0887V2.1875H13.6836V10.0887L14.5822 9.25892C14.7917 9.06549 15.0579 8.96875 15.3242 8.96875Z" fill="#2D3436" />
</svg>
